<?xml version="1.0" encoding="utf-8"?>
<!-- Generator: Adobe Illustrator 19.2.1, SVG Export Plug-In . SVG Version: 6.00 Build 0)  -->
<svg version="1.1" id="Layer_1" xmlns="http://www.w3.org/2000/svg" xmlns:xlink="http://www.w3.org/1999/xlink" x="0px" y="0px"
	 viewBox="0 0 32 42.4" style="enable-background:new 0 0 32 42.4;" xml:space="preserve">
<style type="text/css">
	.st0{fill:none;stroke:#000000;stroke-width:9.0287;stroke-miterlimit:10;}
	.st1{fill:#FFFFFF;}
	.st2{fill:none;stroke:#000000;stroke-width:4.857;stroke-miterlimit:10;}
	.st3{fill:none;stroke:#000000;stroke-width:4.8573;stroke-miterlimit:10;}
	.st4{fill:none;stroke:#000000;stroke-width:8.7363;stroke-miterlimit:10;}
	.st5{fill:none;stroke:#000000;stroke-width:8.736;stroke-miterlimit:10;}
	.st6{fill:none;stroke:#000000;stroke-width:9.9486;stroke-miterlimit:10;}
	.st7{fill:none;stroke:#000000;stroke-width:3.8557;stroke-miterlimit:10;}
</style>
<symbol id="dog-1">
<path d="M31.4,4c-0.5-0.2-1.4-0.3-1.6-0.4c0,0-0.1,0-0.1-0.1s-0.2-0.4-0.5-0.8c-0.5-0.7-1.1-1-1.2-1h-0.1l0,0h-0.1l0,0
	c0,0,0,0-0.1,0c0,0,0,0-0.1,0c-0.2-0.1-0.5-0.2-0.8-0.3c-0.3,0-1.1,0.2-1.2,0.3l0,0c0,0,0,0,0,0.1c-0.4,0.6-0.9,1-0.9,1
	c-0.1,0.1-0.5,0.4-1,0.8l-1.4,1.2l0,0c-1.9,1.6-3.1,2.2-3.6,2.3c-0.5,0.1-1,0.2-1.4,0.3c-0.9,0.1-1.6,0.2-1.6,0.2
	c-0.9,0-2.5,0.1-3.8,0.2L9.2,7.9l0,0C8.6,7.9,8.2,8,7.9,8C7.8,8,7.8,8,7.7,8l0,0C7.5,8,7.4,8,7.3,8.1c-0.1,0-0.1,0-0.1,0l0,0
	C7,8.1,6.8,8.2,6.6,8.3c-1,0.5-1.7,1.5-1.7,2.6c0,0,0,0,0,0.1c0,0,0,0,0,0.1l0,0c-0.1,2.7-2.1,4.9-4.8,5l0,0c-0.1,0-0.2,0-0.2,0.1
	c-0.1,0-0.2,0.1-0.2,0.2s0,0.2,0.1,0.2l0,0l0,0h0.1c0,0,0.1,0,0.2,0c2.1-0.1,4-1.2,5.2-2.8c0,1.4-0.3,3.2-2,4.1l0,0L3.2,18l-1.9,1
	l0.4,5.2c0,0,0,0.3,0.4,0.3H4c0.2,0,0.2-0.1,0.2-0.1c0-1-1.2-0.8-1.2-0.8s-0.7-2.3,0.3-3.2c0.4-0.3,1.1-0.7,1.8-1.1
	c0.1-0.1,0.3-0.2,0.4-0.2l0,0c1.3-0.8,2.2-1.5,2.9-2.1c1.7-1.6,2.1-2.9,2.1-2.9s1.9-0.8,4.9,1l0,0l0,0l0,0c1.6,1,3.6,1,4.4,0.9
	l-0.1,5.5V22l0.3,0.9v1.4c0,0,0,0.3,0.4,0.3H21h1c0.2,0,0.2-0.2,0.2-0.2c-0.1-0.7-0.7-0.7-1-0.7v-0.9v-0.6c0-0.3,0-0.5,0-0.9
	c0.1-1.2,0.4-2.7,1-4.3c0.6-1.3,1.4-2.7,2.6-4c0-0.4,0-0.8,0.1-1.1c0.1-0.5,0.3-1.2,0.4-1.8c1.1-2.6,2.9-3.8,2.9-3.8
	c0.3,0,2.6-0.1,2.8-0.3c0.1,0,0.1-0.1,0.1-0.2l0,0c0,0,0,0,0-0.1c0,0,0,0,0-0.1l0,0c0,0,0,0,0-0.1V5.4l0,0c0-0.1,0.1-0.2,0.1-0.2
	l0,0c0.1-0.3,0.1-0.4,0.2-0.9C31.6,4.3,31.6,4.1,31.4,4"/>
</symbol>
<symbol id="cat-2">
	<path d="M31.4,5.7c-0.5-0.3-1.3-1.7-1.8-1.8c-0.5-0.1-2.4-0.4-2.4-0.4c0-1.9-0.7-2.4-0.7-2.4c-0.1,1.5-2,3.3-2,3.3L22.4,10
		c0,0-4.9,2.1-8,5.5c-3.3,3.6-4.4,8.6-4.7,11.2c-0.4,0.5-1,0.9-1.7,1.3c-0.7,0.3-1.7,0.4-2.8,0.4H0.9c-0.4-0.2-0.7,0-0.7,0.4
		s0.3,0.6,0.7,0.6h6c0.7,0,1.5-0.3,2-0.6c0.2-0.1,0.4-0.2,0.6-0.4l0,0c0.1,0.8,0.8,1,1.5,1h8c0.9,0,1.1-1,0.3-1.2
		c-0.8-0.3-1.1-0.4-1.1-0.4s2.8-0.9,2-3.5l2-1.8c0,0,1.7,6.2,1.9,6.6c0.2,0.4,0.3,0.4,0.6,0.4H26c0.9,0,0.7-1,0.2-1.2
		c-0.4-0.2-0.7-0.1-0.9-0.4c-0.1-0.1-1-4.4-0.2-7.6c0.7-3.2,3-5.3,3-5.3c-0.8-2.9,0-4.6,0.5-5.5c0,0,1.8-0.2,2.3-0.5
		c0.4-0.3,1.2-2,1.2-2.5C32.2,6,31.9,6,31.4,5.7"/>
</symbol>
<symbol id="cat-1">
	<path d="M1,31.5h4.4c6.4,0,6-5.8,6-5.8l0,0c0,0.1,0,0.2,0,0.3c0.1-10,5.1-12.3,7.2-12.9c0.4-0.1,0.8-0.2,1.3-0.2l2-5.3l0.4-1
		c0.3-0.2,0.6-0.4,1-0.7c2.7-2.2,4.1-4.8,4.1-4.8c0.2,0.3,0.3,0.5,0.3,0.8c0.2,0.7,0.2,1.4,0.2,1.7c0,0.2-0.1,0.4-0.1,0.4
		s2.7,0.8,2.9,1.8c0,0.1,0.1,0.2,0.1,0.3c0.2,1,0.9,1.5,1,1.5c0.2,0.3,0.5,0.6,0.5,0.7c0,0-0.5,1.3-1.5,2.3c0,0-0.4,0-0.9,0.3
		c-0.1,0.1-0.2,0.2-0.4,0.3l0,0c-0.2,0.2-0.3,0.6-0.3,1.1c0,0.8,0.3,2,1.4,3.6c-2.2,2.8-2.9,6-2.9,8.6c0,0.9,0,1.8,0.2,2.9
		c0.3,2,0.8,3.2,0.8,3.2c0.3,0.8,1,1,1,1l0,0c0.2,0.1,0.4,0.2,0.6,0.3s0.3,0.3,0.3,0.5c0,0.3-0.3,0.6-0.6,0.6h-2
		c-0.8,0-1.1-0.8-1.1-0.8c-0.8-1.9-2.2-5.4-2.2-5.4s-0.6,0.6-0.9,1s0.1,0.6,0.1,1.5c-0.1,0.8-1.3,1.9-1.3,1.9s0.6,0.2,1.2,0.5
		c0.3,0.1,0.4,0.3,0.4,0.6c0,0.4-0.3,0.7-0.7,0.7h-8.7c-0.9,0-1.6-0.4-2-1c0,0,0-0.1-0.1-0.1c-0.8,0.4-1.7,0.7-2.6,0.8
		s-1.7,0.2-2.2,0.2c-0.4,0-0.6,0-0.6,0H7.2h-6c-0.4,0-0.8-0.3-0.8-0.8C0.2,31.8,0.5,31.5,1,31.5"/>
</symbol>
<symbol id="plus">
	<line class="st0" x1="16.2" y1="1.1" x2="16.2" y2="33.1"/>
	<line class="st0" x1="32.2" y1="17.1" x2="0.2" y2="17.1"/>
</symbol>
<symbol id="play_circle">
	<path d="M16.2,1.1c-8.8,0-16,7.2-16,16s7.2,16,16,16s16-7.2,16-16S25,1.1,16.2,1.1z M25,18.4l-12.6,7.3c-1,0.6-2.2-0.1-2.2-1.3
			V9.9c0-1.1,1.2-1.8,2.2-1.3L25,15.9C25.9,16.4,25.9,17.8,25,18.4z"/>
	<path class="st1" d="M25,18.4l-12.6,7.3c-1,0.6-2.2-0.1-2.2-1.3V9.9c0-1.1,1.2-1.8,2.2-1.3L25,15.9C25.9,16.4,25.9,17.8,25,18.4z"
		/>
</symbol>
<symbol id="mute">
		<line class="st2" x1="18.3" y1="6.4" x2="30.4" y2="18.6"/>
		<line class="st3" x1="30.4" y1="6.4" x2="18.3" y2="18.6"/>
		<rect x="0.2" y="5.9" width="13.8" height="13.2"/>
		<path d="M3,10.7l8.4-9C12.1,0.9,14,0.8,14,2.4v20.1c0,1.6-1.7,1.7-2.5,0.9l-8.6-9.2C2.2,13.4,2.2,11.5,3,10.7z"/>
</symbol>
<symbol id="pause">
	<line class="st4" x1="4.6" y1="1.1" x2="4.6" y2="37.6"/>
	<line class="st5" x1="27.8" y1="1.1" x2="27.8" y2="37.6"/>
</symbol>
<symbol id="next">
	<path d="M18,22.4L4.4,36.9c-1.1,1.3-4.2,1.4-4.2-1.1V3.4c0-2.5,2.8-2.7,4-1.4L18,16.8C19.1,18,19.1,21.2,18,22.4z"/>
	<line class="st5" x1="27.8" y1="1.1" x2="27.8" y2="37.6"/>
</symbol>
<symbol id="minimize">
	<path d="M13.3,17.3L1.8,16.9c-1,0-2.3,1.2-1.3,2.2l13.3,13.3c1,1,2.3,0,2.2-1l-0.4-11.8C15.6,18.6,14.3,17.3,13.3,17.3z"/>
	<rect x="1.8" y="21" transform="matrix(0.7071 -0.7071 0.7071 0.7071 -16.3185 12.541)" width="10.4" height="9.9"/>
	<path d="M18.3,17.1l11.5,0.4c1,0,2.3-1.2,1.3-2.2L17.8,1.9c-1-1-2.3,0-2.2,1L16,14.7C16,15.7,17.3,17,18.3,17.1z"/>
	<rect x="19.4" y="3.3" transform="matrix(0.7071 -0.7071 0.7071 0.7071 1.3561 19.8117)" width="10.4" height="9.9"/>
</symbol>
<symbol id="back">
	<path d="M14.4,16.5L27.9,2c1.2-1.3,4.2-1.4,4.2,1.1v32.4c0,2.5-2.8,2.7-4,1.4L14.3,22.1C13.3,20.9,13.3,17.8,14.4,16.5z"/>
	<line class="st5" x1="4.6" y1="37.8" x2="4.6" y2="1.3"/>
</symbol>
<symbol id="close">
	<line class="st6" x1="3.5" y1="4.4" x2="28.5" y2="29.3"/>
	<line class="st6" x1="28.5" y1="4.4" x2="3.5" y2="29.3"/>
</symbol>
<symbol id="volume">
	<path class="st7" d="M18.6,8.2c2.3,2.2,2.5,6.4,0.3,8.7"/>
	<path class="st2" d="M24.5,1.9c5.7,5.3,6.1,15.6,0.7,21.3"/>
	<rect x="0.2" y="6" width="13.8" height="13.2"/>
	<path d="M3,10.7l8.4-9C12.1,0.9,14,0.8,14,2.4v20.2c0,1.6-1.7,1.7-2.5,0.9l-8.6-9.2C2.2,13.5,2.2,11.5,3,10.7z"/>
</symbol>
<symbol id="play">
<path d="M30.8,21.6l-25.9,15c-2,1.2-4.6-0.3-4.6-2.6V4.1c0-2.3,2.5-3.8,4.6-2.6l25.9,15C32.8,17.5,32.8,20.4,30.8,21.6z"/>
</symbol>
<symbol id="stop">
<rect x="0.2" y="1.1" width="32" height="37"/>
</symbol>
<symbol id="flip">
<path d="M32.2,1.1c-6.9,13.8-18.2,25.1-32,32h32V1.1z"/>
</symbol>
<symbol id="arrow-right">
	<path d="M31,18.2L15.6,1.7c-1.3-1.4-4.8-1.6-4.8,1.3v36.9c0,2.9,3.2,3.1,4.5,1.6L31,24.7C32.3,23.3,32.3,19.7,31,18.2z"/>
	<rect x="0" y="11.9" width="20.3" height="19.4"/>
</symbol>
<symbol id="arrow-left">
	<path d="M1,25l15.4,16.5c1.3,1.4,4.8,1.6,4.8-1.3V3.3c0-2.9-3.2-3.1-4.5-1.6L1,18.5C-0.3,19.9-0.3,23.5,1,25z"/>
	<rect x="11.7" y="11.9" width="20.3" height="19.4"/>
</symbol>
<symbol id="refresh">
<path class="cls-1" d="M7484.3,2665.55a28.09,28.09,0,1,0-17.55-50l13.93,12L7444,2633l0.07-37.08,12.88,11.14a40.86,40.86,0,1,1-11.11,44.23l13.07-1.93A28.11,28.11,0,0,0,7484.3,2665.55Z"
  transform="translate(-7443.99 -2595.96)"/>
</symbol>
</svg>
