<svg id="Content" xmlns="http://www.w3.org/2000/svg" viewBox="0 0 899.9 155.86"><defs><style>.cls-1{fill:#fff;}.cls-2{fill:#231f20;}.cls-3{fill:#ec1c24;}</style></defs><title>Purina_Logo-Keyline</title><path class="cls-1" d="M1267.73,3277.23a8.87,8.87,0,1,1-8.79-8.62,8.68,8.68,0,0,1,8.79,8.62m-15.51,0a6.71,6.71,0,0,0,6.72,6.89,6.62,6.62,0,0,0,6.58-6.85,6.66,6.66,0,1,0-13.31,0m5.3,4.47h-2v-8.62a24.22,24.22,0,0,1,3.31-.27,4.69,4.69,0,0,1,3,.68,2.18,2.18,0,0,1-.9,3.9v0.1a2.43,2.43,0,0,1,1.52,2.11,7.92,7.92,0,0,0,.63,2.11h-2.1a6.88,6.88,0,0,1-.69-2.11,1.51,1.51,0,0,0-1.78-1.31h-1v3.42Zm0.06-4.84h0.94c1.1,0,2-.36,2-1.26s-0.57-1.32-1.84-1.32a4.21,4.21,0,0,0-1.1.12v2.46Z" transform="translate(-367.83 -3268.53)"/><rect class="cls-1" width="865.86" height="155.86"/><rect class="cls-2" x="156.12" y="5.45" width="704.37" height="145.26"/><path class="cls-1" d="M609.35,3300.81c-5-1.79-11.86-2.68-20.38-2.68H553v5.25h4.92c3.18,0,5.49.89,7,2.64,0.57,0.65,1.54,2.88,1.54,10.2v61.36c0,6.67-.74,8.83-1.15,9.52-1.48,2.2-3.92,3.29-7.43,3.29H553v5.28h43.17v-5.28h-4.93c-3.18,0-5.42-.85-6.92-2.62-0.66-.65-1.62-2.85-1.62-10.19v-25.89c2.39,0.46,4.72.91,6.9,1.14a51.75,51.75,0,0,0,7.56.53c9.53,0,17.09-2.6,22.36-7.67s8-11.79,8-19.91a24.25,24.25,0,0,0-5.31-15.64,29,29,0,0,0-12.9-9.33m-26.64,6.69a35.93,35.93,0,0,1,7.68-1.07,18.75,18.75,0,0,1,9.62,2.47,15.74,15.74,0,0,1,6.46,7.27,25.35,25.35,0,0,1,2.35,10.89c0,5.63-1.61,10.21-4.8,13.69a14.77,14.77,0,0,1-11.4,5.23,38.38,38.38,0,0,1-4.61-.33c-1.56-.2-3.37-0.47-5.29-0.84v-37.31Z" transform="translate(-367.83 -3268.53)"/><path class="cls-1" d="M715.21,3297.5v5.33h4.87c3.17,0,5.44.84,7,2.6,0.61,0.66,1.59,3,1.59,10.2v38.31c0,9.83-.86,16.83-2.58,20.91-1.64,3.84-4.87,7.14-9.51,9.66a32.66,32.66,0,0,1-16,3.89,25.27,25.27,0,0,1-11.66-2.44,18.33,18.33,0,0,1-7.15-6.1c-1.66-2.46-2.84-6-3.48-10.52a93.88,93.88,0,0,1-1-12.45v-41.27c0-6.23.8-8.7,1.51-9.71,1.35-2.09,3.68-3.08,7-3.08h5v-5.33H647.57v5.33h4.84c3.12,0,5.31.74,6.6,2.24,0.93,1.06,2,3.78,2,10.55v37c0,11.7.77,19.47,2.35,23.84a30.49,30.49,0,0,0,11.9,15.08c5.57,3.75,13.74,5.66,24.29,5.66,9.75,0,17.59-2,23.32-5.89s9.63-8.64,11.63-14.11,2.91-12.92,2.91-22.5v-38.38c0-6.57.77-8.71,1.24-9.4a8.1,8.1,0,0,1,7.34-4.09h4.92v-5.33H715.21Z" transform="translate(-367.83 -3268.53)"/><path class="cls-1" d="M858.7,3386.66c-3.05-1.95-6.82-6.07-11.13-12.15,0,0-14.26-19.7-18.49-25.53,7.26-1.91,12.79-4.9,16.45-9.05a23.61,23.61,0,0,0,6-16,22.59,22.59,0,0,0-5.3-15,27.11,27.11,0,0,0-12.79-8.55c-4.91-1.49-12.53-2.23-22.7-2.23H774.9v5.24h4.91c3.13,0,5.44.88,7,2.64,0.6,0.69,1.6,2.88,1.6,10.19v61.39c0,6.68-.76,8.79-1.22,9.5-1.48,2.22-3.85,3.32-7.35,3.32H774.9v5.29h43.17v-5.29h-5c-3.1,0-5.36-.89-6.86-2.61-0.59-.67-1.58-2.91-1.58-10.21V3351.3a4.21,4.21,0,0,1,.7.07c0.62,0,1.27,0,1.93,0,1.41,0,3.07-.07,5-0.14l32.17,44.4h27.48v-5.16l-1.22-.13c-4.92-.55-9-1.77-12-3.72m-54.09-79.33a54.75,54.75,0,0,1,9.5-1.16c5.62,0,10.2,1.71,13.56,5.13s5.12,7.88,5.12,13.48a17.36,17.36,0,0,1-6.33,13.89c-4.29,3.66-10.77,5.51-19.34,5.51l-2.51,0v-36.82Z" transform="translate(-367.83 -3268.53)"/><path class="cls-1" d="M896.37,3298.13v5.25h4.68a11.51,11.51,0,0,1,5.73,1.55,4.64,4.64,0,0,1,2.23,2.32c0.38,0.93.84,3.24,0.84,9v61.34c0,7-.9,9.27-1.41,9.93-1.48,2-3.92,2.87-7.39,2.87h-4.68v5.3h43.17v-5.3h-4.75a11.36,11.36,0,0,1-5.62-1.47,5.31,5.31,0,0,1-2.33-2.31c-0.33-1-.77-3.26-0.77-9v-61.34c0-7,.88-9.24,1.43-9.94,1.49-1.95,3.91-2.91,7.29-2.91h4.75v-5.25H896.37Z" transform="translate(-367.83 -3268.53)"/><path class="cls-1" d="M1078,3298.13h-35.72v5.25h4.62c3.36,0,5.78.84,7.22,2.51,0.6,0.69,1.62,2.89,1.62,10.09v50.82l-56.48-68.67H971.54v5.25h1.37a20.12,20.12,0,0,1,5.72.61,21.81,21.81,0,0,1,5.88,2.68,39.58,39.58,0,0,1,5.68,5.88v65.26c0,6.63-.81,8.81-1.29,9.52-1.41,2.08-3.85,3.06-7.52,3.06h-4.63v5.28h35.7v-5.28h-4.72c-3.3,0-5.73-.85-7.2-2.52-0.59-.64-1.54-2.83-1.54-10.06v-54.66l61.06,74.08h4.46V3316c0-6.61.81-8.8,1.31-9.51,1.41-2.06,3.87-3.09,7.44-3.09H1078v-5.25Z" transform="translate(-367.83 -3268.53)"/><path class="cls-1" d="M1198,3390.38c-3.53-.22-6.32-1.21-8.22-2.87s-4.37-5.72-6.93-11.84L1150.2,3296h-4.59l-34.28,78.71c-2.84,6.68-5.38,11.15-7.62,13.25-0.55.54-2.14,1.57-7,2.42l-1.1.22v5.06h32.49v-5.19l-1.27-.09c-5.31-.43-7.35-1.21-8.17-1.86a3.48,3.48,0,0,1-1.54-2.77c0-1.13.35-3.36,2.25-7.73,0,0,4.75-10.89,6.1-14h35.06c1.19,2.92,5.25,12.82,5.25,12.82,1.79,4.18,2.68,7.28,2.68,9.11a3.57,3.57,0,0,1-1.45,2.83c-0.75.59-2.56,1.39-6.9,1.57l-1.29.06v5.22h40.42v-5.22Zm-54.44-67.88,13.72,33.46H1129Z" transform="translate(-367.83 -3268.53)"/><rect class="cls-3" x="5.48" y="5.45" width="145.33" height="145.28"/><rect class="cls-1" x="10.7" y="10.61" width="134.9" height="134.94"/><rect class="cls-3" x="15.87" y="98.86" width="41.51" height="41.49"/><rect class="cls-3" x="98.89" y="98.86" width="41.52" height="41.49"/><rect class="cls-3" x="57.39" y="57.31" width="41.5" height="41.55"/><rect class="cls-3" x="15.87" y="15.81" width="41.51" height="41.5"/><rect class="cls-3" x="98.89" y="15.81" width="41.52" height="41.5"/></svg>