<?xml version="1.0" encoding="utf-8"?>
<!-- Generator: Adobe Illustrator 19.2.1, SVG Export Plug-In . SVG Version: 6.00 Build 0)  -->
<svg version="1.1" xmlns="http://www.w3.org/2000/svg" xmlns:xlink="http://www.w3.org/1999/xlink" x="0px" y="0px"
	 viewBox="0 0 32 588.2">
<style type="text/css">
	.st0{fill:none;stroke:#000000;stroke-width:9.0287;stroke-miterlimit:10;}
	.st1{fill:#FFFFFF;}
	.st2{fill:none;stroke:#000000;stroke-width:4.857;stroke-miterlimit:10;}
	.st3{fill:none;stroke:#000000;stroke-width:4.8573;stroke-miterlimit:10;}
	.st4{fill:none;stroke:#000000;stroke-width:8.7363;stroke-miterlimit:10;}
	.st5{fill:none;stroke:#000000;stroke-width:8.736;stroke-miterlimit:10;}
	.st6{fill:none;stroke:#000000;stroke-width:9.9486;stroke-miterlimit:10;}
	.st7{fill:none;stroke:#000000;stroke-width:3.8557;stroke-miterlimit:10;}
</style>
<symbol id="big-dog">
<path d="M31.7,2.7c-0.5-0.2-1.4-0.3-1.6-0.4c0,0-0.1,0-0.1-0.1c0-0.1-0.2-0.4-0.5-0.8c-0.5-0.7-1.1-1-1.2-1c0,0-0.1,0-0.1,0h0
	c0,0-0.1,0-0.1,0h0c0,0,0,0-0.1,0c0,0,0,0-0.1,0c-0.2-0.1-0.5-0.2-0.8-0.3c-0.3,0-1.1,0.2-1.2,0.3c0,0,0,0,0,0c0,0,0,0,0,0.1
	c-0.4,0.6-0.9,1-0.9,1c-0.1,0.1-0.5,0.4-1,0.8l-1.4,1.2c0,0,0,0,0,0c-1.9,1.6-3.1,2.2-3.6,2.3C18.5,5.9,18,6,17.6,6.1
	C16.7,6.2,16,6.3,16,6.3c-0.9,0-2.5,0.1-3.8,0.2L9.5,6.6h0c-0.6,0-1,0.1-1.3,0.1c-0.1,0-0.1,0-0.2,0c0,0,0,0,0,0
	c-0.2,0-0.3,0-0.4,0.1c-0.1,0-0.1,0-0.1,0l0,0C7.3,6.8,7.1,6.9,6.9,7c-1,0.5-1.7,1.5-1.7,2.6c0,0,0,0,0,0.1c0,0,0,0,0,0.1
	c0,0,0,0,0,0c-0.1,2.7-2.1,4.9-4.8,5c0,0,0,0,0,0c-0.1,0-0.2,0-0.2,0.1C0.1,14.9,0,15,0,15.1c0,0.1,0,0.2,0.1,0.2c0,0,0,0,0,0
	c0,0,0,0,0,0c0,0,0.1,0,0.1,0c0,0,0.1,0,0.2,0c2.1-0.1,4-1.2,5.2-2.8c0,1.4-0.3,3.2-2,4.1l0,0c0,0-0.1,0.1-0.1,0.1l-1.9,1L2,22.9
	c0,0,0,0.3,0.4,0.3h1.9c0.2,0,0.2-0.1,0.2-0.1c0-1-1.2-0.8-1.2-0.8S2.6,20,3.6,19.1C4,18.8,4.7,18.4,5.4,18c0.1-0.1,0.3-0.2,0.4-0.2
	l0,0C7.1,17,8,16.3,8.7,15.7c1.7-1.6,2.1-2.9,2.1-2.9s1.9-0.8,4.9,1l0,0c0,0,0,0,0,0l0,0c1.6,1,3.6,1,4.4,0.9L20,20.2l0,0.5l0.3,0.9
	V23c0,0,0,0.3,0.4,0.3h0.6h1c0.2,0,0.2-0.2,0.2-0.2c-0.1-0.7-0.7-0.7-1-0.7v-0.9v-0.6c0-0.3,0-0.5,0-0.9c0.1-1.2,0.4-2.7,1-4.3
	c0.6-1.3,1.4-2.7,2.6-4c0-0.4,0-0.8,0.1-1.1c0.1-0.5,0.3-1.2,0.4-1.8C26.7,6.2,28.5,5,28.5,5c0.3,0,2.6-0.1,2.8-0.3
	c0.1,0,0.1-0.1,0.1-0.2c0,0,0,0,0,0c0,0,0,0,0-0.1c0,0,0,0,0-0.1c0,0,0,0,0,0c0,0,0,0,0-0.1c0,0,0-0.1,0-0.1c0,0,0,0,0,0
	c0-0.1,0.1-0.2,0.1-0.2l0,0c0.1-0.3,0.1-0.4,0.2-0.9C31.9,3,31.9,2.8,31.7,2.7"/>
</symbol>
<symbol id="big-cat">
	<path d="M31.2,74.9c-0.5-0.3-1.3-1.7-1.8-1.8C28.9,73,27,72.7,27,72.7c0-1.9-0.7-2.4-0.7-2.4c-0.1,1.5-2,3.3-2,3.3l-2.1,5.6
		c0,0-4.9,2.1-8,5.5c-3.3,3.6-4.4,8.6-4.7,11.2c-0.4,0.5-1,0.9-1.7,1.3c-0.7,0.3-1.7,0.4-2.8,0.4H0.7C0.3,97.4,0,97.6,0,98
		s0.3,0.6,0.7,0.6h6c0.7,0,1.5-0.3,2-0.6c0.2-0.1,0.4-0.2,0.6-0.4l0,0c0.1,0.8,0.8,1,1.5,1h8c0.9,0,1.1-1,0.3-1.2
		C18.3,97.1,18,97,18,97s2.8-0.9,2-3.5l2-1.8c0,0,1.7,6.2,1.9,6.6c0.2,0.4,0.3,0.4,0.6,0.4h1.3c0.9,0,0.7-1,0.2-1.2
		c-0.4-0.2-0.7-0.1-0.9-0.4c-0.1-0.1-1-4.4-0.2-7.6c0.7-3.2,3-5.3,3-5.3c-0.8-2.9,0-4.6,0.5-5.5c0,0,1.8-0.2,2.3-0.5
		c0.4-0.3,1.2-2,1.2-2.5C32,75.2,31.7,75.2,31.2,74.9"/>
</symbol>
<symbol id="little-dog">
	<path d="M0.8,53.9h4.4c6.4,0,6-5.8,6-5.8l0,0c0,0.1,0,0.2,0,0.3c0.1-10,5.1-12.3,7.2-12.9c0.4-0.1,0.8-0.2,1.3-0.2l2-5.3l0.4-1
		c0.3-0.2,0.6-0.4,1-0.7c2.7-2.2,4.1-4.8,4.1-4.8c0.2,0.3,0.3,0.5,0.3,0.8c0.2,0.7,0.2,1.4,0.2,1.7c0,0.2-0.1,0.4-0.1,0.4
		s2.7,0.8,2.9,1.8c0,0.1,0.1,0.2,0.1,0.3c0.2,1,0.9,1.5,1,1.5c0.2,0.3,0.5,0.6,0.5,0.7c0,0-0.5,1.3-1.5,2.3c0,0-0.4,0-0.9,0.3
		c-0.1,0.1-0.2,0.2-0.4,0.3l0,0c-0.2,0.2-0.3,0.6-0.3,1.1c0,0.8,0.3,2,1.4,3.6c-2.2,2.8-2.9,6-2.9,8.6c0,0.9,0,1.8,0.2,2.9
		c0.3,2,0.8,3.2,0.8,3.2c0.3,0.8,1,1,1,1l0,0c0.2,0.1,0.4,0.2,0.6,0.3s0.3,0.3,0.3,0.5c0,0.3-0.3,0.6-0.6,0.6h-2
		c-0.8,0-1.1-0.8-1.1-0.8c-0.8-1.9-2.2-5.4-2.2-5.4s-0.6,0.6-0.9,1s0.1,0.6,0.1,1.5c-0.1,0.8-1.3,1.9-1.3,1.9s0.6,0.2,1.2,0.5
		c0.3,0.1,0.4,0.3,0.4,0.6c0,0.4-0.3,0.7-0.7,0.7h-8.7c-0.9,0-1.6-0.4-2-1c0,0,0-0.1-0.1-0.1c-0.8,0.4-1.7,0.7-2.6,0.8
		s-1.7,0.2-2.2,0.2c-0.4,0-0.6,0-0.6,0H7H1c-0.4,0-0.8-0.3-0.8-0.8C0,54.2,0.3,53.9,0.8,53.9"/>
</symbol>
<symbol id="plus">
	<line class="st0" x1="16" y1="114.2" x2="16" y2="146.2"/>
	<line class="st0" x1="32" y1="130.2" x2="0" y2="130.2"/>
</symbol>
<g id="play_circle">
	<g>
		<path d="M16,146.2c-8.8,0-16,7.2-16,16c0,8.8,7.2,16,16,16s16-7.2,16-16C32,153.4,24.8,146.2,16,146.2z M24.8,163.5l-12.6,7.3
			c-1,0.6-2.2-0.1-2.2-1.3v-14.5c0-1.1,1.2-1.8,2.2-1.3l12.6,7.3C25.7,161.5,25.7,162.9,24.8,163.5z"/>
	</g>
	<path class="st1" d="M24.8,163.5l-12.6,7.3c-1,0.6-2.2-0.1-2.2-1.3v-14.5c0-1.1,1.2-1.8,2.2-1.3l12.6,7.3
		C25.7,161.5,25.7,162.9,24.8,163.5z"/>
</g>
<g>
	<g>
		<line class="st2" x1="18.1" y1="333.9" x2="30.2" y2="346.1"/>
		<line class="st3" x1="30.2" y1="333.9" x2="18.1" y2="346.1"/>
	</g>
	<g>
		<rect y="333.4" width="13.8" height="13.2"/>
		<path d="M2.8,338.2l8.4-9c0.7-0.8,2.6-0.9,2.6,0.7V350c0,1.6-1.7,1.7-2.5,0.9l-8.6-9.2C2,340.9,2,339,2.8,338.2z"/>
	</g>
</g>
<g>
	<line class="st4" x1="4.4" y1="178.2" x2="4.4" y2="219.2"/>
	<line class="st5" x1="27.6" y1="178.2" x2="27.6" y2="219.2"/>
</g>
<g>
	<path d="M17.8,276.6L4.2,291.1C3.1,292.4,0,292.5,0,290v-32.4c0-2.5,2.8-2.7,4-1.4L17.8,271C18.9,272.2,18.9,275.4,17.8,276.6z"/>
	<g>
		<line class="st5" x1="27.6" y1="255.3" x2="27.6" y2="291.8"/>
	</g>
</g>
<g>
	<g>
		<path d="M13.5,392.6L2,392.2c-1,0-2.3,1.2-1.3,2.2L14,407.7c1,1,2.3,0,2.2-1l-0.4-11.8C15.8,393.9,14.5,392.6,13.5,392.6z"/>
		<rect x="2" y="396.4" transform="matrix(0.7071 -0.7071 0.7071 0.7071 -281.6757 122.6138)" width="10.4" height="9.9"/>
	</g>
	<g>
		<path d="M18.5,392.4l11.5,0.4c1,0,2.3-1.2,1.3-2.2L18,377.2c-1-1-2.3,0-2.2,1l0.4,11.8C16.2,391,17.5,392.3,18.5,392.4z"/>
		<rect x="19.6" y="378.7" transform="matrix(-0.7071 0.7071 -0.7071 -0.7071 313.6388 637.3602)" width="10.4" height="9.9"/>
	</g>
</g>
<g>
	<path d="M14.2,307.2l13.5-14.5c1.2-1.3,4.2-1.4,4.2,1.1v32.4c0,2.5-2.8,2.7-4,1.4l-13.8-14.8C13.1,311.6,13.1,308.5,14.2,307.2z"/>
	<g>
		<line class="st5" x1="4.4" y1="328.5" x2="4.4" y2="292"/>
	</g>
</g>
<g>
	<line class="st6" x1="3.6" y1="412.1" x2="28.5" y2="437"/>
	<line class="st6" x1="28.5" y1="412.1" x2="3.6" y2="437"/>
</g>
<g>
	<g>
		<path class="st7" d="M18.4,359.6c2.3,2.2,2.5,6.4,0.3,8.7"/>
		<path class="st2" d="M24.3,353.3c5.7,5.3,6.1,15.6,0.7,21.3"/>
	</g>
	<g>
		<rect y="357.4" width="13.8" height="13.2"/>
		<path d="M2.8,362.1l8.4-9c0.7-0.8,2.6-0.9,2.6,0.7V374c0,1.6-1.7,1.7-2.5,0.9l-8.6-9.2C2,364.9,2,362.9,2.8,362.1z"/>
	</g>
</g>
<path d="M30.6,239.9l-25.9,15c-2,1.2-4.6-0.3-4.6-2.6v-29.9c0-2.3,2.5-3.8,4.6-2.6l25.9,15C32.6,235.8,32.6,238.7,30.6,239.9z"/>
<rect y="440.6" width="32" height="32"/>
<g>
	<path d="M11.7,102.6c0.9-1.1,2.2-1.8,3.6-1.9c0.1-0.1,0.1-0.3,0.2-0.4c-0.8-1-1.9-1.5-3.2-1.5c-1.5,0-2.8,0.8-3.5,2
		C10,101,11,101.7,11.7,102.6"/>
	<path d="M16.7,100.8c1.2,0.3,2.3,1,3,2.1c0.8-1.3,2.2-2.1,3.6-2.2c-0.7-1.3-2.1-2.1-3.6-2.1c-1.3,0-2.6,0.7-3.4,1.8
		c-0.1,0.1-0.1,0.2-0.2,0.3c0,0,0,0.1-0.1,0.1c0,0,0.1,0,0.1,0C16.5,100.8,16.6,100.8,16.7,100.8"/>
	<path d="M16.9,102c-0.1,0-0.2-0.1-0.3-0.1c-0.1,0-0.2,0-0.3-0.1c-0.2,0-0.3,0-0.5,0l-0.1,0c-0.1,0-0.1,0-0.2,0l-0.1,0
		c-0.1,0-0.2,0-0.3,0c-1.2,0.1-2.3,0.8-3,1.9c0.1,0.2,0.2,0.5,0.3,0.8h6.6c0-0.1,0.1-0.3,0.1-0.4C18.8,103,18,102.3,16.9,102"/>
	<path d="M11.5,104c-0.1-0.1-0.1-0.2-0.2-0.3c-0.6-1.1-1.7-1.7-2.9-1.9c-0.1,0-0.2,0-0.3,0l-0.1,0c-0.1,0-0.1,0-0.2,0l-0.1,0
		c-1.7,0-3.2,1.1-3.8,2.7h7.6c0,0,0,0,0-0.1C11.6,104.2,11.5,104.1,11.5,104"/>
	<path d="M20.2,104.1c-0.1,0.1-0.1,0.2-0.1,0.3h7.6c-0.5-1.4-1.8-2.4-3.3-2.6c-0.1,0-0.2,0-0.3,0l-0.1,0c-0.1,0-0.1,0-0.2,0l0,0
		C22.3,101.8,20.9,102.7,20.2,104.1"/>
	<path d="M32,113.2l-1.5-6.6c-0.1-0.5-0.7-1-1.2-1H2.8c-0.5,0-1.1,0.4-1.2,1l-1.5,6.6c-0.1,0.5,0.2,1,0.8,1h30.4
		C31.8,114.2,32.1,113.8,32,113.2"/>
</g>
<symbol id="cat-2">
<path d="M31.8,58.1c-0.1-0.1-2.7-1-2.7-1L28.4,56c0,0-0.4-0.3-0.9-0.4c0,0-0.2-0.1-0.5-0.1c-0.4,0-1.4,0-1.7,0.1
	c-0.2,0-0.4,0-0.6,0.1c-0.3,0.2-0.5,0.5-0.4,0.8c0,0,0,0,0,0c-0.1,0.1-0.3,0.5-0.6,0.8l-0.4,0.6l0,0c0,0,0,0-0.1,0.1
	c0,0,0,0.1-0.1,0.1c-0.1,0.1-0.2,0.3-0.5,0.5c-0.1,0.1-0.2,0.2-0.4,0.3c-0.7,0.4-1.7,1-3.4,1.4c-0.1,0-0.1,0-0.2,0
	c-0.2,0-0.4,0.1-0.6,0.1c-0.1,0-0.2,0-0.4,0.1c-0.1,0-0.2,0-0.3,0c-0.3,0-0.5,0.1-0.9,0.1c-0.1,0-0.2,0-0.3,0
	c-0.9,0.1-1.8,0.2-2.9,0.2c-0.3,0-0.7,0-1.1,0c0,0-0.3,0-0.4,0c-0.9,0-1.7,0-2.2,0c-0.5,0-0.8,0-0.9,0c-0.2,0-0.4,0-0.7,0.1
	c-0.3,0.1-0.5,0.2-0.8,0.4c-0.1,0.1-0.2,0.2-0.3,0.3c0,0,0,0,0,0c0,0,0,0,0,0c0,0.1-0.1,0.1-0.1,0.2c-0.3,0.3-0.5,0.6-0.7,0.9
	c0,0,0,0-0.1,0c-0.3,0.3-0.7,0.7-1.2,0.9c-2.6,1.4-4.4,1.1-4.4,1.1c-0.1,0-0.2,0-0.2,0C0.1,64.9,0,65,0,65.1c0,0.1,0,0.1,0,0.2
	c0,0,0,0,0,0l0,0c0,0,0.1,0.1,0.1,0.1c0,0,0.1,0,0.1,0c1.5,0.2,3.7-0.2,5.3-1c0.3-0.1,0.5-0.3,0.8-0.4c-0.3,2.4-1.4,2.9-2.1,3.3
	c-0.1,0-0.1,0.1-0.2,0.1l1.1,2.7h0h0.2h1h0.1c0.2,0,0.1-1-0.4-0.9c-0.1,0-0.2-0.1-0.2-0.1c0-0.1-0.3-0.6-0.3-0.9
	c0.2-0.1,0.6-0.2,1-0.3c0.2,0,0.3-0.1,0.5-0.1c0.4-0.1,0.8-0.1,1.2-0.2c0.4-0.1,0.7-0.2,1-0.3c1-0.3,1.9-0.8,2.1-1.7
	c0.4-0.1,0.7-0.1,1.1-0.1c0.1,0,0.1,0,0.2,0l0,0c0.2,0,0.4,0.1,0.6,0.1c0.1,0,0.2,0.1,0.3,0.1c0.2,0.1,0.3,0.2,0.5,0.3
	c0.2,0.1,0.4,0.3,0.6,0.5c0.1,0.1,0.2,0.2,0.3,0.2c0,0,0,0,0,0c0.2,0.1,0.3,0.2,0.5,0.3c0.1,0,0.1,0.1,0.2,0.1
	c0.4,0.2,0.9,0.3,1.6,0.5c1,0.2,2.2,0.3,3.6,0.1c0.2,0,0.3-0.1,0.4-0.1l1.3,2.4h0h0.2h1h0.1c0.2,0,0.1-1-0.4-0.9
	c-0.1,0-0.2-0.1-0.2-0.1c0-0.1-0.4-1.6-0.5-1.9c0,0,2-1.5,2.6-1.9c0-2.1,0.8-4.5,1.2-5.5l0.1,0l0.4,0l3.4-0.3l0,0c0.1,0,0.1,0,0.2,0
	c0.6-0.1,1.1-0.8,1.1-0.8S32.1,58.3,31.8,58.1"/>
</symbol>
<path d="M32,472.6c-6.9,13.8-18.2,25.1-32,32h32V472.6z"/>
<g>
	<path d="M31,522.1l-15.4-16.5c-1.3-1.4-4.8-1.6-4.8,1.3v36.9c0,2.9,3.2,3.1,4.5,1.6L31,528.6C32.3,527.2,32.3,523.6,31,522.1z"/>
	<rect x="0" y="515.8" width="20.3" height="19.4"/>
</g>
<g>
	<path d="M1,570.6l15.4,16.5c1.3,1.4,4.8,1.6,4.8-1.3v-36.9c0-2.9-3.2-3.1-4.5-1.6L1,564.1C-0.3,565.5-0.3,569.1,1,570.6z"/>
	<rect x="11.7" y="557.5" transform="matrix(-1 -1.800228e-10 1.800228e-10 -1 43.6848 1134.4216)" width="20.3" height="19.4"/>
</g>
</svg>
