<!-- Generator: Adobe Illustrator 19.2.1, SVG Export Plug-In . SVG Version: 6.00 Build 0)  -->
<svg version="1.1" id="Layer_1" xmlns="http://www.w3.org/2000/svg" xmlns:xlink="http://www.w3.org/1999/xlink" x="0px" y="0px"
	 viewBox="0 0 32 17.4" style="enable-background:new 0 0 32 17.4;" xml:space="preserve">
<style type="text/css">
	.st0{fill:none;stroke:#000000;stroke-width:9.0287;stroke-miterlimit:10;}
	.st1{fill:#FFFFFF;}
	.st2{fill:none;stroke:#000000;stroke-width:4.857;stroke-miterlimit:10;}
	.st3{fill:none;stroke:#000000;stroke-width:4.8573;stroke-miterlimit:10;}
	.st4{fill:none;stroke:#000000;stroke-width:8.7363;stroke-miterlimit:10;}
	.st5{fill:none;stroke:#000000;stroke-width:8.736;stroke-miterlimit:10;}
	.st6{fill:none;stroke:#000000;stroke-width:9.9486;stroke-miterlimit:10;}
	.st7{fill:none;stroke:#000000;stroke-width:3.8557;stroke-miterlimit:10;}
</style>
<symbol id="food-bowl">
	<path d="M11.6,4c0.9-1.1,2.2-1.8,3.6-1.9c0.1-0.1,0.1-0.3,0.2-0.4c-0.8-1-1.9-1.5-3.2-1.5c-1.5,0-2.8,0.8-3.5,2
		C9.9,2.4,10.9,3.1,11.6,4"/>
	<path d="M16.6,2.2c1.2,0.3,2.3,1,3,2.1c0.8-1.3,2.2-2.1,3.6-2.2C22.5,0.8,21.1,0,19.6,0c-1.3,0-2.6,0.7-3.4,1.8
		C16.1,1.9,16.1,2,16,2.1c0,0,0,0.1-0.1,0.1H16C16.4,2.2,16.5,2.2,16.6,2.2"/>
	<path d="M16.8,3.4c-0.1,0-0.2-0.1-0.3-0.1c-0.1,0-0.2,0-0.3-0.1c-0.2,0-0.3,0-0.5,0h-0.1c-0.1,0-0.1,0-0.2,0h-0.1
		c-0.1,0-0.2,0-0.3,0c-1.2,0.1-2.3,0.8-3,1.9c0.1,0.2,0.2,0.5,0.3,0.8h6.6c0-0.1,0.1-0.3,0.1-0.4C18.7,4.4,17.9,3.7,16.8,3.4"/>
	<path d="M11.4,5.4c-0.1-0.1-0.1-0.2-0.2-0.3C10.6,4,9.5,3.4,8.3,3.2c-0.1,0-0.2,0-0.3,0H7.9c-0.1,0-0.1,0-0.2,0H7.6
		c-1.7,0-3.2,1.1-3.8,2.7h7.6c0,0,0,0,0-0.1C11.5,5.6,11.4,5.5,11.4,5.4"/>
	<path d="M20.1,5.5C20,5.6,20,5.7,20,5.8h7.6c-0.5-1.4-1.8-2.4-3.3-2.6c-0.1,0-0.2,0-0.3,0h-0.1c-0.1,0-0.1,0-0.2,0l0,0
		C22.2,3.2,20.8,4.1,20.1,5.5"/>
	<path d="M31.9,14.6L30.4,8c-0.1-0.5-0.7-1-1.2-1H2.7C2.2,7,1.6,7.4,1.5,8L0,14.6c-0.1,0.5,0.2,1,0.8,1h30.4
		C31.7,15.6,32,15.2,31.9,14.6"/>
</symbol>
<symbol id="dog-2">
<path d="M31.8,4.2c-0.1-0.1-2.7-1-2.7-1l-0.7-1.1c0,0-0.4-0.3-0.9-0.4c0,0-0.2-0.1-0.5-0.1c-0.4,0-1.4,0-1.7,0.1
	c-0.2,0-0.4,0-0.6,0.1c-0.3,0.2-0.5,0.5-0.4,0.8l0,0c-0.1,0.1-0.3,0.5-0.6,0.8L23.3,4l0,0c0,0,0,0-0.1,0.1c0,0,0,0.1-0.1,0.1
	c-0.1,0.1-0.2,0.3-0.5,0.5c-0.1,0.1-0.2,0.2-0.4,0.3c-0.7,0.4-1.7,1-3.4,1.4c-0.1,0-0.1,0-0.2,0c-0.2,0-0.4,0.1-0.6,0.1
	c-0.1,0-0.2,0-0.4,0.1c-0.1,0-0.2,0-0.3,0c-0.3,0-0.5,0.1-0.9,0.1c-0.1,0-0.2,0-0.3,0c-0.9,0.1-1.8,0.2-2.9,0.2c-0.3,0-0.7,0-1.1,0
	c0,0-0.3,0-0.4,0c-0.9,0-1.7,0-2.2,0s-0.8,0-0.9,0c-0.2,0-0.4,0-0.7,0.1S7.4,7.2,7.1,7.4C7,7.5,6.9,7.6,6.8,7.7l0,0l0,0
	c0,0.1-0.1,0.1-0.1,0.2C6.4,8.2,6.2,8.5,6,8.8c0,0,0,0-0.1,0C5.6,9.1,5.2,9.5,4.7,9.7c-2.6,1.4-4.4,1.1-4.4,1.1c-0.1,0-0.2,0-0.2,0
	C0.1,11,0,11.1,0,11.2s0,0.1,0,0.2l0,0l0,0l0.1,0.1h0.1c1.5,0.2,3.7-0.2,5.3-1c0.3-0.1,0.5-0.3,0.8-0.4C6,12.5,4.9,13,4.2,13.4
	c-0.1,0-0.1,0.1-0.2,0.1l1.1,2.7l0,0h0.2h1h0.1c0.2,0,0.1-1-0.4-0.9c-0.1,0-0.2-0.1-0.2-0.1c0-0.1-0.3-0.6-0.3-0.9
	c0.2-0.1,0.6-0.2,1-0.3c0.2,0,0.3-0.1,0.5-0.1c0.4-0.1,0.8-0.1,1.2-0.2s0.7-0.2,1-0.3c1-0.3,1.9-0.8,2.1-1.7
	c0.4-0.1,0.7-0.1,1.1-0.1c0.1,0,0.1,0,0.2,0l0,0c0.2,0,0.4,0.1,0.6,0.1c0.1,0,0.2,0.1,0.3,0.1c0.2,0.1,0.3,0.2,0.5,0.3
	c0.2,0.1,0.4,0.3,0.6,0.5c0.1,0.1,0.2,0.2,0.3,0.2l0,0c0.2,0.1,0.3,0.2,0.5,0.3c0.1,0,0.1,0.1,0.2,0.1c0.4,0.2,0.9,0.3,1.6,0.5
	c1,0.2,2.2,0.3,3.6,0.1c0.2,0,0.3-0.1,0.4-0.1l1.3,2.4l0,0h0.2h1h0.1c0.2,0,0.1-1-0.4-0.9c-0.1,0-0.2-0.1-0.2-0.1
	c0-0.1-0.4-1.6-0.5-1.9c0,0,2-1.5,2.6-1.9c0-2.1,0.8-4.5,1.2-5.5h0.1H27l3.4-0.3l0,0c0.1,0,0.1,0,0.2,0c0.6-0.1,1.1-0.8,1.1-0.8
	S32.1,4.4,31.8,4.2"/>
</symbol>
</svg>
