<svg id="Layer_1" data-name="Layer 1" xmlns="http://www.w3.org/2000/svg" viewBox="0 0 89.21 14.68"><defs><style>.cls-1{fill:#231f20;}.cls-2{fill:#fff;}.cls-3{fill:#ed1c24;}</style></defs><title>Purina_Logo</title><path class="cls-1" d="M379.73,84.56a0.9,0.9,0,1,1-.89-0.87,0.88,0.88,0,0,1,.89.87m-1.57,0a0.68,0.68,0,0,0,.68.7,0.67,0.67,0,0,0,.66-0.69,0.67,0.67,0,1,0-1.34,0M378.7,85h-0.2V84.14a2.27,2.27,0,0,1,.33,0,0.47,0.47,0,0,1,.3.07,0.22,0.22,0,0,1-.09.39h0a0.25,0.25,0,0,1,.15.21,0.79,0.79,0,0,0,.06.21H379A0.69,0.69,0,0,1,379,84.8a0.15,0.15,0,0,0-.18-0.13h-0.1V85Zm0-.49h0.09c0.11,0,.2,0,0.2-0.13s-0.06-.13-0.19-0.13H378.7v0.25Z" transform="translate(-290.52 -83.69)"/><rect class="cls-1" x="15.22" width="71.16" height="14.68"/><path class="cls-2" d="M314.36,86.4a6.32,6.32,0,0,0-2.06-.27h-3.63v0.53h0.5a0.9,0.9,0,0,1,.71.27,1.83,1.83,0,0,1,.15,1v6.2a2.19,2.19,0,0,1-.12,1,0.83,0.83,0,0,1-.75.33h-0.5V96H313V95.45h-0.5a0.86,0.86,0,0,1-.7-0.26,1.69,1.69,0,0,1-.16-1V91.54c0.24,0,.48.09,0.7,0.12a5.18,5.18,0,0,0,.76.05,3.15,3.15,0,0,0,2.26-.77,2.68,2.68,0,0,0,.81-2,2.45,2.45,0,0,0-.54-1.58,2.93,2.93,0,0,0-1.3-.94m-2.69.68a3.62,3.62,0,0,1,.78-0.11,1.9,1.9,0,0,1,1,.25,1.6,1.6,0,0,1,.65.73,2.56,2.56,0,0,1,.24,1.1,2,2,0,0,1-.49,1.38,1.49,1.49,0,0,1-1.15.53l-0.47,0-0.53-.09V87.08Z" transform="translate(-290.52 -83.69)"/><path class="cls-2" d="M325.06,86.07V86.6h0.49a0.88,0.88,0,0,1,.71.26,1.78,1.78,0,0,1,.16,1v3.87a6,6,0,0,1-.26,2.11,2.07,2.07,0,0,1-1,1,3.29,3.29,0,0,1-1.62.39A2.57,2.57,0,0,1,322.4,95a1.87,1.87,0,0,1-.72-0.62,2.56,2.56,0,0,1-.35-1.06,9.44,9.44,0,0,1-.1-1.26V87.9a1.89,1.89,0,0,1,.15-1,0.78,0.78,0,0,1,.71-0.31h0.5V86.07h-4.36V86.6h0.49a0.84,0.84,0,0,1,.67.23,1.73,1.73,0,0,1,.2,1.07v3.74a8,8,0,0,0,.24,2.41,3.08,3.08,0,0,0,1.2,1.52,4.41,4.41,0,0,0,2.45.57,4.13,4.13,0,0,0,2.36-.59A3,3,0,0,0,327,94.12a6.94,6.94,0,0,0,.29-2.27V88a2,2,0,0,1,.13-0.95,0.82,0.82,0,0,1,.74-0.41h0.5V86.07h-3.61Z" transform="translate(-290.52 -83.69)"/><path class="cls-2" d="M339.56,95.07a4.76,4.76,0,0,1-1.12-1.23l-1.87-2.58a3.25,3.25,0,0,0,1.66-.91,2.39,2.39,0,0,0,.61-1.62,2.27,2.27,0,0,0-.54-1.51,2.73,2.73,0,0,0-1.29-.87,8.58,8.58,0,0,0-2.29-.23h-3.62v0.53h0.5a0.88,0.88,0,0,1,.7.27,1.77,1.77,0,0,1,.16,1v6.2a2,2,0,0,1-.12,1,0.81,0.81,0,0,1-.74.34h-0.5V96h4.36V95.45h-0.51a0.87,0.87,0,0,1-.69-0.26,1.8,1.8,0,0,1-.16-1V91.5h0.77L338.12,96h2.77V95.46h-0.12a2.82,2.82,0,0,1-1.21-.38m-5.46-8a5.5,5.5,0,0,1,1-.12,1.78,1.78,0,0,1,1.89,1.88,1.75,1.75,0,0,1-.64,1.4,3,3,0,0,1-2,.56h-0.25V87.06Z" transform="translate(-290.52 -83.69)"/><path class="cls-2" d="M343.36,86.13v0.53h0.47a1.16,1.16,0,0,1,.58.16,0.47,0.47,0,0,1,.23.23,2.83,2.83,0,0,1,.08.91v6.2a2,2,0,0,1-.14,1,0.87,0.87,0,0,1-.75.29h-0.47V96h4.36V95.45h-0.48a1.15,1.15,0,0,1-.57-0.15,0.53,0.53,0,0,1-.24-0.23,3.18,3.18,0,0,1-.08-0.91V88a1.9,1.9,0,0,1,.14-1,0.87,0.87,0,0,1,.74-0.29h0.48V86.13h-4.36Z" transform="translate(-290.52 -83.69)"/><path class="cls-2" d="M361.71,86.13H358.1v0.53h0.47a0.93,0.93,0,0,1,.73.25,1.76,1.76,0,0,1,.16,1v5.14l-5.71-6.94H351v0.53h0.14a2.08,2.08,0,0,1,.58.06,2.25,2.25,0,0,1,.59.27,4,4,0,0,1,.57.59v6.59a2,2,0,0,1-.13,1,0.84,0.84,0,0,1-.76.31h-0.47V96h3.61V95.45h-0.48a0.93,0.93,0,0,1-.73-0.26,1.76,1.76,0,0,1-.16-1V88.66l6.17,7.48h0.45V87.93a1.93,1.93,0,0,1,.13-1,0.84,0.84,0,0,1,.75-0.31h0.48V86.13Z" transform="translate(-290.52 -83.69)"/><path class="cls-2" d="M373.83,95.45a1.36,1.36,0,0,1-.83-0.29,3.42,3.42,0,0,1-.7-1.2l-3.3-8h-0.46l-3.46,8a4.27,4.27,0,0,1-.77,1.34,1.38,1.38,0,0,1-.71.24l-0.11,0V96h3.28V95.46h-0.13a1.68,1.68,0,0,1-.83-0.19,0.35,0.35,0,0,1-.16-0.28,2.13,2.13,0,0,1,.23-0.78l0.62-1.42h3.54l0.53,1.3a2.75,2.75,0,0,1,.27.92,0.36,0.36,0,0,1-.15.29,1.26,1.26,0,0,1-.7.16h-0.13V96H374V95.46h-0.13Zm-5.5-6.86L369.72,92h-2.85Z" transform="translate(-290.52 -83.69)"/><rect class="cls-3" width="14.68" height="14.68"/><rect class="cls-2" x="0.53" y="0.53" width="13.63" height="13.63"/><rect class="cls-3" x="1.05" y="9.44" width="4.19" height="4.19"/><rect class="cls-3" x="9.44" y="9.44" width="4.2" height="4.19"/><rect class="cls-3" x="5.24" y="5.24" width="4.19" height="4.2"/><rect class="cls-3" x="1.05" y="1.05" width="4.19" height="4.19"/><rect class="cls-3" x="9.44" y="1.05" width="4.2" height="4.19"/></svg>